<svg width="32" height="32" viewBox="0 0 32 32" fill="none" xmlns="http://www.w3.org/2000/svg">
  <rect width="32" height="32" rx="8" fill="#3B82F6"/>
  <path d="M8 16C8 13.7909 9.79086 12 12 12H20C22.2091 12 24 13.7909 24 16C24 18.2091 22.2091 20 20 20H12C9.79086 20 8 18.2091 8 16Z" fill="white"/>
  <circle cx="12" cy="16" r="2" fill="#3B82F6"/>
  <circle cx="20" cy="16" r="2" fill="#3B82F6"/>
  <path d="M6 10L8 8M8 8L10 10M8 8V6M26 10L24 8M24 8L22 10M24 8V6M6 22L8 24M8 24L10 22M8 24V26M26 22L24 24M24 24L22 22M24 24V26" stroke="white" stroke-width="2" stroke-linecap="round"/>
</svg>